<svg width="163" height="48" viewBox="0 0 163 48" fill="none" xmlns="http://www.w3.org/2000/svg">
<path opacity="0.7" fill-rule="evenodd" clip-rule="evenodd" d="M16 30C22.627 30 28 24.627 28 18C28 11.373 22.627 6 16 6C9.373 6 4 11.373 4 18C4 24.627 9.373 30 16 30ZM16 34C24.837 34 32 26.837 32 18C32 9.163 24.837 2 16 2C7.163 2 0 9.163 0 18C0 26.837 7.163 34 16 34Z" fill="white"/>
<path fill-rule="evenodd" clip-rule="evenodd" d="M24 42C30.627 42 36 36.627 36 30C36 23.373 30.627 18 24 18C17.373 18 12 23.373 12 30C12 36.627 17.373 42 24 42ZM24 46C32.837 46 40 38.837 40 30C40 21.163 32.837 14 24 14C15.163 14 8 21.163 8 30C8 38.837 15.163 46 24 46Z" fill="white"/>
<path d="M51.95 33.91H56.4799V12.91H51.95V33.91ZM58.4679 33.91H62.6679V25.63C62.6679 23.68 63.958 22.27 65.788 22.27C67.528 22.27 68.6979 23.59 68.6979 25.42V33.91H72.898V24.49C72.898 21.01 70.678 18.55 67.258 18.55C65.188 18.55 63.5079 19.42 62.6679 20.89V18.79H58.4679V33.91ZM75.939 14.32V18.79H73.0289V22.27H75.939V28.42C75.939 31.93 78.1889 33.91 81.6689 33.91H84.1589V30.4H82.2389C80.8889 30.4 80.109 29.71 80.109 28.24V22.27H84.1589V18.79H80.109V14.32H75.939Z" fill="white"/>
<path d="M94.757 28.78C94.427 30.07 93.3169 30.73 91.6369 30.73C89.5369 30.73 88.1869 29.41 87.8869 27.28H98.7469C98.7769 26.95 98.8069 26.5 98.8069 25.93C98.8069 22.48 96.6769 18.55 91.3369 18.55C86.2069 18.55 83.8669 22.48 83.8669 26.32C83.8669 30.13 86.5069 34.15 91.6369 34.15C95.3569 34.15 98.2369 32.05 98.8369 28.78H94.757ZM91.3369 21.61C93.3469 21.61 94.5169 22.96 94.6369 24.64H87.9469C88.3069 22.54 89.4469 21.61 91.3369 21.61ZM109.302 22.27V18.79H107.592C105.762 18.79 104.622 19.42 103.812 21.31V18.79H99.6119V33.91H103.812V26.56C103.812 23.98 104.742 22.27 106.812 22.27H109.302ZM109.983 33.91H114.153V12.22H109.983V33.91ZM123.148 34.15C127.798 34.15 131.128 30.85 131.128 26.35C131.128 21.85 127.798 18.55 123.148 18.55C118.498 18.55 115.168 21.85 115.168 26.35C115.168 30.85 118.498 34.15 123.148 34.15ZM123.148 30.55C120.898 30.55 119.368 28.84 119.368 26.35C119.368 23.83 120.898 22.12 123.148 22.12C125.398 22.12 126.928 23.83 126.928 26.35C126.928 28.84 125.398 30.55 123.148 30.55ZM138.929 34.15C142.859 34.15 145.979 31.63 146.429 28.27H142.169C141.869 29.62 140.639 30.55 139.109 30.55C136.829 30.55 135.479 28.81 135.479 26.35C135.479 23.89 136.799 22.12 139.049 22.12C140.579 22.12 141.869 23.11 142.109 24.46H146.309C146.039 20.95 142.889 18.55 138.929 18.55C134.249 18.55 131.128 21.94 131.128 26.35C131.128 30.76 134.249 34.15 138.929 34.15ZM157.459 33.91H162.499L155.989 24.73L162.019 18.79H156.739L151.489 23.95V12.22H147.289V33.91H151.489V29.17L153.169 27.52L157.459 33.91Z" fill="white"/>
</svg>
