<svg width="170" height="48" viewBox="0 0 170 48" fill="none" xmlns="http://www.w3.org/2000/svg">
<path fill-rule="evenodd" clip-rule="evenodd" d="M22 46C34.15 46 44 36.15 44 24C44 11.85 34.15 2 22 2C9.85 2 0 11.85 0 24C0 36.15 9.85 46 22 46ZM28.863 12.248C29.197 11.062 28.046 10.36 26.994 11.109L12.312 21.57C11.172 22.382 11.352 24.001 12.582 24.001H16.448V23.971H23.983L17.843 26.137L15.137 35.753C14.803 36.939 15.954 37.641 17.006 36.892L31.688 26.432C32.828 25.62 32.648 24.001 31.418 24.001H25.555L28.863 12.248Z" fill="white"/>
<path d="M55.38 33.91V30.43H58.14V16.39H55.38V12.91H66.18C67.46 12.91 68.57 13.13 69.51 13.57C70.47 13.99 71.21 14.6 71.73 15.4C72.27 16.18 72.54 17.12 72.54 18.22V18.52C72.54 19.48 72.36 20.27 72 20.89C71.64 21.49 71.21 21.96 70.71 22.3C70.23 22.62 69.77 22.85 69.33 22.99V23.53C69.77 23.65 70.25 23.88 70.77 24.22C71.29 24.54 71.73 25.01 72.09 25.63C72.47 26.25 72.66 27.06 72.66 28.06V28.36C72.66 29.52 72.39 30.52 71.85 31.36C71.31 32.18 70.56 32.81 69.6 33.25C68.66 33.69 67.56 33.91 66.3 33.91H55.38ZM62.1 30.31H65.82C66.68 30.31 67.37 30.1 67.89 29.68C68.43 29.26 68.7 28.66 68.7 27.88V27.58C68.7 26.8 68.44 26.2 67.92 25.78C67.4 25.36 66.7 25.15 65.82 25.15H62.1V30.31ZM62.1 21.55H65.76C66.58 21.55 67.25 21.34 67.77 20.92C68.31 20.5 68.58 19.92 68.58 19.18V18.88C68.58 18.12 68.32 17.54 67.8 17.14C67.28 16.72 66.6 16.51 65.76 16.51H62.1V21.55ZM81.602 34.33C80.122 34.33 78.792 34.03 77.612 33.43C76.4501 32.8468 75.4812 31.9405 74.822 30.82C74.142 29.68 73.802 28.31 73.802 26.71V26.23C73.802 24.63 74.142 23.26 74.822 22.12C75.4812 20.9995 76.4501 20.0932 77.612 19.51C78.792 18.91 80.122 18.61 81.602 18.61C83.082 18.61 84.412 18.91 85.592 19.51C86.7539 20.0932 87.7228 20.9995 88.382 22.12C89.062 23.26 89.402 24.63 89.402 26.23V26.71C89.402 28.31 89.062 29.68 88.382 30.82C87.7228 31.9405 86.7539 32.8468 85.592 33.43C84.412 34.03 83.082 34.33 81.602 34.33ZM81.602 30.97C82.762 30.97 83.722 30.6 84.482 29.86C85.242 29.1 85.622 28.02 85.622 26.62V26.32C85.622 24.92 85.242 23.85 84.482 23.11C83.742 22.35 82.782 21.97 81.602 21.97C80.442 21.97 79.482 22.35 78.722 23.11C77.962 23.85 77.582 24.92 77.582 26.32V26.62C77.582 28.02 77.962 29.1 78.722 29.86C79.482 30.6 80.442 30.97 81.602 30.97ZM91.391 33.91V12.91H95.171V33.91H91.391ZM103.56 33.91C102.58 33.91 101.78 33.61 101.16 33.01C100.56 32.39 100.26 31.57 100.26 30.55V22.15H96.54V19.03H100.26V14.41H104.04V19.03H108.12V22.15H104.04V29.89C104.04 30.49 104.32 30.79 104.88 30.79H107.76V33.91H103.56ZM116.221 34.33C114.281 34.33 112.691 33.91 111.451 33.07C110.211 32.23 109.461 31.03 109.201 29.47L112.681 28.57C112.821 29.27 113.051 29.82 113.371 30.22C113.711 30.62 114.121 30.91 114.601 31.09C115.101 31.25 115.641 31.33 116.221 31.33C117.101 31.33 117.751 31.18 118.171 30.88C118.591 30.56 118.801 30.17 118.801 29.71C118.801 29.25 118.601 28.9 118.201 28.66C117.801 28.4 117.161 28.19 116.281 28.03L115.441 27.88C114.401 27.68 113.451 27.41 112.591 27.07C111.731 26.71 111.041 26.22 110.521 25.6C110.001 24.98 109.741 24.18 109.741 23.2C109.741 21.72 110.281 20.59 111.361 19.81C112.441 19.01 113.861 18.61 115.621 18.61C117.281 18.61 118.661 18.98 119.761 19.72C120.861 20.46 121.581 21.43 121.921 22.63L118.411 23.71C118.251 22.95 117.921 22.41 117.421 22.09C116.941 21.77 116.341 21.61 115.621 21.61C114.901 21.61 114.351 21.74 113.971 22C113.591 22.24 113.401 22.58 113.401 23.02C113.401 23.5 113.601 23.86 114.001 24.1C114.401 24.32 114.941 24.49 115.621 24.61L116.461 24.76C117.581 24.96 118.591 25.23 119.491 25.57C120.411 25.89 121.131 26.36 121.651 26.98C122.191 27.58 122.461 28.4 122.461 29.44C122.461 31 121.891 32.21 120.751 33.07C119.631 33.91 118.121 34.33 116.221 34.33ZM124.274 33.91V12.91H128.054V20.86H128.594C128.754 20.54 129.004 20.22 129.344 19.9C129.684 19.58 130.134 19.32 130.694 19.12C131.274 18.9 132.004 18.79 132.884 18.79C134.044 18.79 135.054 19.06 135.914 19.6C136.794 20.12 137.474 20.85 137.954 21.79C138.434 22.71 138.674 23.79 138.674 25.03V33.91H134.894V25.33C134.894 24.21 134.614 23.37 134.054 22.81C133.514 22.25 132.734 21.97 131.714 21.97C130.554 21.97 129.654 22.36 129.014 23.14C128.374 23.9 128.054 24.97 128.054 26.35V33.91H124.274ZM141.26 33.91V19.03H145.04V33.91H141.26ZM143.15 17.29C142.47 17.29 141.89 17.07 141.41 16.63C140.95 16.19 140.72 15.61 140.72 14.89C140.72 14.17 140.95 13.59 141.41 13.15C141.89 12.71 142.47 12.49 143.15 12.49C143.85 12.49 144.43 12.71 144.89 13.15C145.35 13.59 145.58 14.17 145.58 14.89C145.58 15.61 145.35 16.19 144.89 16.63C144.43 17.07 143.85 17.29 143.15 17.29ZM150.189 33.91V22.15H146.409V19.03H150.189V16.27C150.189 15.25 150.489 14.44 151.089 13.84C151.709 13.22 152.509 12.91 153.489 12.91H157.389V16.03H154.809C154.249 16.03 153.969 16.33 153.969 16.93V19.03H157.869V22.15H153.969V33.91H150.189Z" fill="white"/>
<path d="M164.702 33.91C163.722 33.91 162.922 33.61 162.302 33.01C161.702 32.39 161.402 31.57 161.402 30.55V22.15H157.682V19.03H161.402V14.41H165.182V19.03H169.262V22.15H165.182V29.89C165.182 30.49 165.462 30.79 166.022 30.79H168.902V33.91H164.702Z" fill="white"/>
</svg>
