<svg width="165" height="48" viewBox="0 0 165 48" fill="none" xmlns="http://www.w3.org/2000/svg">
<path fill-rule="evenodd" clip-rule="evenodd" d="M12.835 33.165C5.53 31.813 0 25.41 0 17.715C0 9.034 7.036 2 15.714 2C23.41 2 29.813 7.531 31.165 14.835C30.2151 14.6591 29.2511 14.5708 28.285 14.571C19.607 14.571 12.571 21.607 12.571 30.286C12.571 31.269 12.661 32.231 12.835 33.165Z" fill="#101013"/>
<path opacity="0.6" fill-rule="evenodd" clip-rule="evenodd" d="M15.714 33.428C24.394 33.428 31.429 26.393 31.429 17.714C31.429 16.731 31.339 15.768 31.165 14.834C38.47 16.188 44 22.59 44 30.287C44 38.964 36.965 46 28.286 46C20.591 46 14.187 40.469 12.835 33.165C13.7849 33.3409 14.7489 33.4293 15.715 33.429L15.714 33.428Z" fill="#101013"/>
<path d="M67.55 34.24C72.92 34.24 76.79 31.21 77.18 26.71H72.68C72.32 28.87 70.25 30.34 67.55 30.34C64.16 30.34 61.55 28 61.55 23.5C61.55 19 64.16 16.63 67.55 16.63C70.19 16.63 72.26 18.1 72.56 20.29H77.27C76.7 15.76 72.83 12.76 67.55 12.76C61.94 12.76 57.02 16.42 57.02 23.5C57.02 30.58 61.85 34.24 67.55 34.24ZM85.531 18.64C81.391 18.64 78.931 21.07 78.751 24.1H82.471C82.531 22.84 83.461 21.7 85.291 21.7C87.001 21.7 87.991 22.57 87.991 23.83C87.991 24.46 87.601 24.94 86.851 24.94H84.301C81.001 24.94 78.781 26.74 78.781 29.71C78.781 32.29 80.791 34.24 83.731 34.24C85.801 34.24 87.481 33.31 87.991 31.9V34H92.131V24.28C92.131 20.86 89.341 18.64 85.531 18.64ZM84.781 31.21C83.611 31.21 82.771 30.52 82.771 29.53C82.771 28.36 83.671 27.58 84.931 27.58H87.991V27.79C87.991 29.71 86.821 31.21 84.781 31.21ZM94.934 40.12H99.104V32.65C99.914 33.67 101.384 34.24 103.094 34.24C107.444 34.24 110.384 31.15 110.384 26.44C110.384 21.73 107.684 18.64 103.454 18.64C101.504 18.64 100.004 19.36 99.104 20.53V18.88H94.934V40.12ZM102.584 30.64C100.334 30.64 98.864 28.96 98.864 26.44C98.864 23.89 100.334 22.21 102.584 22.21C104.774 22.21 106.274 23.89 106.274 26.44C106.274 28.96 104.774 30.64 102.584 30.64ZM117.726 34.24C121.266 34.24 123.606 32.35 123.606 29.47C123.606 22.63 115.326 26.14 115.326 23.05C115.326 22.09 116.136 21.58 117.306 21.58C118.446 21.58 119.616 22.27 119.796 23.56H123.426C123.276 20.59 120.816 18.64 117.186 18.64C114.096 18.64 111.786 20.53 111.786 23.2C111.786 29.56 119.916 26.53 119.916 29.62C119.916 30.46 119.016 31.09 117.726 31.09C116.166 31.09 115.116 30.25 114.966 28.9H111.366C111.516 32.17 114.036 34.24 117.726 34.24ZM140.076 18.88H135.876V27.16C135.876 29.08 134.586 30.52 132.756 30.52C131.046 30.52 129.846 29.2 129.846 27.37V18.88H125.676V28.3C125.676 31.75 127.896 34.24 131.286 34.24C133.356 34.24 135.036 33.34 135.876 31.9V34H140.076V18.88ZM143.077 34H147.247V12.31H143.077V34ZM160.352 28.87C160.022 30.16 158.912 30.82 157.232 30.82C155.132 30.82 153.782 29.5 153.482 27.37H164.342C164.372 27.04 164.402 26.59 164.402 26.02C164.402 22.57 162.272 18.64 156.932 18.64C151.802 18.64 149.462 22.57 149.462 26.41C149.462 30.22 152.102 34.24 157.232 34.24C160.952 34.24 163.832 32.14 164.432 28.87H160.352ZM156.932 21.7C158.942 21.7 160.112 23.05 160.232 24.73H153.542C153.902 22.63 155.042 21.7 156.932 21.7Z" fill="#101013"/>
</svg>
