<svg width="179" height="48" viewBox="0 0 179 48" fill="none" xmlns="http://www.w3.org/2000/svg">
<g clip-path="url(#clip0_2079_42)">
<path d="M25.8 35.787C22.3 34.487 18.7 34.287 15.4 35.187C13.1 35.787 10.9 36.987 8.9 38.487L7.5 39.687L7.1 40.087L8 40.887C8.1 40.887 8.1 40.987 8.2 41.087C8.4 41.287 8.6 41.387 8.9 41.587L9.5 41.987L10.1 41.487C10.2 41.387 10.4 41.187 10.6 41.087C12.4 39.587 14.4 38.587 16.5 38.087C19.2 37.387 22.1 37.487 25 38.587C27.4 39.487 32.3 40.587 38.2 38.087L38.4 37.987L38.7 37.687C38.7 37.587 38.8 37.587 38.9 37.487C39.4 36.887 39.9 36.287 40.3 35.587L42.3 32.487L39.1 34.287C34.4 36.887 30.1 37.387 25.8 35.787ZM12.1 24.988C14.8 24.288 17.7 24.388 20.6 25.488C23.8 26.688 32 28.388 41.2 20.088L42.7 18.588L42.8 18.488L43.2 18.088L43 17.588C42.9 17.188 42.7 16.688 42.5 16.188L42 14.788L41 15.788C40.9 15.988 40.7 16.088 40.5 16.288C36.1 20.788 29.3 25.388 21.5 22.588C18 21.288 14.4 21.088 11.1 21.988C7.9 22.888 5.1 24.588 2.5 26.988V26.888L1 28.488C1 28.588 0.9 28.588 0.8 28.688L0.5 28.988L0.6 29.388C0.7 29.888 0.9 30.388 1 30.888L1.6 32.488L2.6 31.188C2.7 30.988 2.9 30.888 3 30.688C5.1 28.788 8 26.088 12.1 24.988Z" fill="white"/>
<path d="M2.4 23.187C4.7 20.787 7.3 19.287 10.1 18.487C12.8 17.787 15.7 17.887 18.6 18.987C27.6 22.287 35.4 16.887 38.8 13.987L40.1 12.687L40.6 12.287L40.2 11.687C39.9 11.387 39.7 10.987 39.4 10.587L38.8 9.787L38.1 10.487L37.7 10.887C33.5 14.887 27 18.987 19.6 16.187C16.1 14.887 12.5 14.687 9.2 15.587C7.1 16.187 5.1 17.187 3.1 18.487L1 20.187L0.5 20.687L0.3 20.887V21.187C0.2 21.887 0.2 22.587 0.1 23.187L0 25.687L1.7 23.887C1.9 23.687 2.1 23.387 2.4 23.187ZM28.7 42.587C28.4 42.487 28.2 42.387 27.9 42.287C24.4 40.987 20.8 40.787 17.5 41.687C16.8 41.887 16.1 42.087 15.4 42.387L13 43.487L12.4 43.787L14.4 44.487L16.2 45.087L16.5 45.187L16.8 45.087C17.1 44.987 17.4 44.787 17.7 44.787C17.9 44.787 18.1 44.687 18.3 44.587C20.7 43.987 23.3 43.987 26.1 44.887C26.4 44.987 26.6 45.087 26.9 45.187L27.4 45.387L27.7 45.287C28.4 45.087 29.2 44.887 29.8 44.587L32.6 43.587L29.7 42.887C29.4 42.787 29 42.687 28.7 42.587ZM44 21.887L42.5 23.387L41.9 23.987C37.8 27.887 31.2 32.087 23.8 29.287C20.3 27.987 16.7 27.787 13.4 28.687C10.3 29.587 7.5 31.187 5 33.587L3.7 34.987L3.3 35.487L3.7 36.087C4 36.487 4.2 36.787 4.4 37.187L5 38.087L5.7 37.187L6.1 36.787C8.5 34.187 11.1 32.587 14.1 31.787C16.8 31.087 19.7 31.187 22.6 32.287C25.1 33.187 27.7 33.487 30.3 33.187C34.9 32.687 39.5 30.087 42.9 27.187C43.1 26.987 43.3 26.887 43.5 26.687L43.8 26.387V26.087C43.8 25.487 43.9 24.787 43.9 24.187L44 21.887Z" fill="white"/>
<path d="M5.99995 12.688C6.59995 12.388 7.29995 12.188 7.89995 11.988C10.6 11.288 13.5 11.388 16.4 12.488C18.3 13.188 20.1999 13.488 22.2999 13.488C26.4999 13.488 30.6999 11.988 34.5999 9.088L36.0999 7.888L36.5999 7.488L35.7 6.788C35.4 6.488 34.9999 6.188 34.5999 5.988L34 5.588L33.5 5.988C33.3 6.088 33.2 6.288 33 6.388C27.7 10.388 22.4 11.488 17.4 9.588C13.8 8.288 10.2 7.988 6.59995 9.088C6.29995 9.188 5.99995 9.288 5.59995 9.388L5.39995 9.488L5.09995 9.788C5.09995 9.888 4.99995 9.888 4.89995 9.988C4.49995 10.588 3.99995 11.088 3.59995 11.688L1.69995 14.588L4.79995 12.988C5.29995 12.988 5.69995 12.788 5.99995 12.688ZM14.2 5.887L14.5 5.987C15.8 6.487 17.7999 6.987 20.2999 6.987C22.8999 6.987 25.4 6.387 27.9 5.387L31 3.887L28.9 3.187C28.3 2.987 27.7 2.787 27 2.687H26.7L26.4 2.787C26.1 2.887 25.8 3.087 25.5 3.187C22.5 4.287 19.5 4.487 16.6 3.687L15.7 3.387L15.4 3.287L15.1 3.387C14.5 3.587 13.9 3.787 13.3 4.087L11 5.087L13.4 5.787C13.6 5.687 13.9 5.787 14.2 5.887Z" fill="white"/>
<path d="M61.28 33.91H56.666L63.696 13.545H69.244L76.264 33.909H71.65L66.55 18.199H66.39L61.28 33.91ZM60.991 25.905H71.89V29.265H60.991V25.905ZM82.871 13.545V33.91H78.636V13.545H82.871ZM94.388 18.636V21.818H85.191V18.636H94.388ZM87.278 14.977H91.514V29.216C91.514 29.607 91.574 29.912 91.694 30.131C91.813 30.343 91.978 30.491 92.191 30.578C92.409 30.664 92.661 30.708 92.946 30.708C93.146 30.708 93.344 30.691 93.543 30.658L94 30.568L94.666 33.72C94.454 33.786 94.156 33.863 93.772 33.949C93.3114 34.0513 92.8418 34.1079 92.37 34.118C91.349 34.158 90.454 34.022 89.685 33.71C88.923 33.399 88.329 32.915 87.905 32.258C87.481 31.602 87.272 30.774 87.279 29.773L87.278 14.977ZM102.728 32.805V18.725H106.288V32.805H102.728ZM97.468 27.545V23.985H111.548V27.545H97.468ZM126.84 19.402C126.761 18.6 126.419 17.977 125.816 17.532C125.213 17.088 124.394 16.866 123.36 16.866C122.657 16.866 122.064 16.966 121.58 17.165C121.096 17.357 120.725 17.625 120.467 17.97C120.217 18.3095 120.084 18.7213 120.089 19.143C120.075 19.508 120.152 19.826 120.317 20.098C120.49 20.37 120.725 20.605 121.023 20.804C121.349 21.0093 121.695 21.1793 122.057 21.311C122.449 21.451 122.866 21.57 123.31 21.669L125.14 22.107C126.028 22.305 126.843 22.57 127.586 22.902C128.328 23.233 128.971 23.642 129.515 24.125C130.051 24.6 130.482 25.1826 130.778 25.835C131.083 26.491 131.238 27.244 131.245 28.092C131.238 29.339 130.92 30.419 130.29 31.334C129.667 32.242 128.766 32.948 127.586 33.452C126.413 33.949 124.997 34.197 123.34 34.197C121.696 34.197 120.264 33.945 119.045 33.442C117.832 32.938 116.884 32.192 116.201 31.204C115.525 30.21 115.17 28.981 115.137 27.516H119.303C119.35 28.198 119.545 28.768 119.89 29.226C120.241 29.676 120.709 30.018 121.292 30.25C121.882 30.475 122.548 30.588 123.29 30.588C124.02 30.588 124.653 30.482 125.19 30.27C125.733 30.058 126.154 29.763 126.452 29.385C126.748 29.0158 126.906 28.5551 126.9 28.082C126.9 27.625 126.764 27.241 126.492 26.929C126.227 26.617 125.836 26.352 125.319 26.134C124.71 25.8837 124.082 25.684 123.44 25.537L121.222 24.98C119.505 24.562 118.15 23.91 117.155 23.021C116.161 22.133 115.667 20.936 115.674 19.431C115.667 18.199 115.995 17.121 116.658 16.201C117.328 15.279 118.246 14.56 119.413 14.043C120.579 13.525 121.905 13.267 123.39 13.267C124.901 13.267 126.22 13.525 127.347 14.043C128.481 14.56 129.362 15.279 129.992 16.2C130.622 17.122 130.947 18.189 130.967 19.402H126.84ZM138.297 25.08V33.91H134.061V13.544H138.178V21.33H138.357C138.702 20.428 139.258 19.723 140.027 19.212C140.796 18.695 141.761 18.436 142.921 18.436C143.981 18.436 144.906 18.668 145.695 19.133C146.49 19.59 147.107 20.249 147.544 21.111C147.988 21.966 148.207 22.991 148.201 24.184V33.908H143.965V24.94C143.971 23.999 143.733 23.267 143.249 22.743C142.772 22.219 142.102 21.957 141.24 21.957C140.664 21.957 140.153 22.08 139.709 22.325C139.267 22.5749 138.908 22.9481 138.675 23.399C138.43 23.863 138.304 24.424 138.297 25.08ZM151.534 33.91V18.635H155.77V33.91H151.534ZM153.662 16.668C153.032 16.668 152.492 16.458 152.041 16.041C151.597 15.617 151.375 15.11 151.375 14.52C151.375 13.937 151.597 13.436 152.041 13.018C152.476 12.6001 153.059 12.3714 153.662 12.382C154.292 12.382 154.829 12.594 155.273 13.018C155.723 13.436 155.949 13.936 155.949 14.52C155.949 15.11 155.723 15.617 155.273 16.041C154.84 16.4547 154.261 16.6801 153.662 16.668ZM168.89 18.636V21.818H157.95V18.636H168.89ZM160.108 33.909V17.533C160.108 16.426 160.323 15.508 160.754 14.778C161.174 14.0651 161.797 13.4939 162.544 13.138C163.299 12.773 164.158 12.591 165.119 12.591C165.769 12.591 166.362 12.641 166.899 12.74C167.442 12.84 167.847 12.929 168.112 13.008L167.356 16.19C167.154 16.1281 166.948 16.0784 166.74 16.041C166.498 15.9941 166.251 15.9707 166.004 15.971C165.381 15.971 164.947 16.117 164.701 16.409C164.456 16.694 164.333 17.095 164.333 17.612V33.91L160.108 33.909ZM178.087 18.636V21.818H168.89V18.636H178.087ZM170.978 14.977H175.214V29.216C175.214 29.607 175.273 29.912 175.393 30.131C175.502 30.3333 175.677 30.4914 175.89 30.578C176.109 30.664 176.361 30.708 176.646 30.708C176.844 30.708 177.043 30.691 177.242 30.658C177.441 30.618 177.593 30.588 177.7 30.568L178.366 33.72C178.154 33.786 177.855 33.863 177.471 33.949C177.01 34.0513 176.541 34.1079 176.069 34.118C175.048 34.158 174.153 34.022 173.384 33.71C172.622 33.399 172.029 32.915 171.604 32.258C171.18 31.602 170.971 30.774 170.978 29.773V14.977Z" fill="white"/>
</g>
<defs>
<clipPath id="clip0_2079_42">
<rect width="179" height="48" fill="white"/>
</clipPath>
</defs>
</svg>
