<svg width="178" height="48" viewBox="0 0 178 48" fill="none" xmlns="http://www.w3.org/2000/svg">
<path fill-rule="evenodd" clip-rule="evenodd" d="M20 38C27.732 38 34 31.732 34 24C34 16.268 27.732 10 20 10C12.268 10 6 16.268 6 24C6 31.732 12.268 38 20 38ZM20 44C31.046 44 40 35.046 40 24C40 12.954 31.046 4 20 4C8.954 4 0 12.954 0 24C0 35.046 8.954 44 20 44Z" fill="white"/>
<path d="M66.184 20.413C66.1883 21.4416 65.928 22.4541 65.428 23.353C64.943 24.268 64.168 25.005 63.104 25.565C62.059 26.125 60.734 26.405 59.128 26.405H55.852V33.909H51.932V14.365H59.128C60.64 14.365 61.928 14.626 62.992 15.149C64.056 15.672 64.849 16.391 65.372 17.305C65.913 18.22 66.184 19.255 66.184 20.413ZM58.96 23.241C60.043 23.241 60.845 22.999 61.368 22.513C61.891 22.009 62.152 21.309 62.152 20.413C62.152 18.509 61.088 17.557 58.96 17.557H55.852V23.241H58.96ZM74.735 34.161C73.242 34.161 71.898 33.834 70.703 33.181C69.5171 32.5178 68.5382 31.5389 67.875 30.353C67.203 29.14 66.867 27.74 66.867 26.153C66.867 24.567 67.213 23.167 67.903 21.953C68.5831 20.768 69.5824 19.7978 70.787 19.153C72 18.481 73.354 18.145 74.847 18.145C76.341 18.145 77.694 18.481 78.907 19.153C80.1074 19.7937 81.0987 20.7655 81.763 21.953C82.473 23.166 82.827 24.567 82.827 26.153C82.827 27.74 82.463 29.14 81.735 30.353C81.0452 31.5474 80.037 32.5265 78.823 33.181C77.61 33.835 76.247 34.161 74.735 34.161ZM74.735 30.745C75.445 30.745 76.107 30.577 76.723 30.241C77.358 29.887 77.862 29.364 78.235 28.673C78.609 27.983 78.795 27.143 78.795 26.153C78.795 24.679 78.403 23.549 77.619 22.765C76.854 21.962 75.911 21.561 74.791 21.561C73.671 21.561 72.728 21.962 71.963 22.765C71.217 23.549 70.843 24.678 70.843 26.153C70.843 27.628 71.207 28.767 71.935 29.569C72.682 30.353 73.615 30.745 74.735 30.745ZM88.503 13.19V33.91H84.583V13.19H88.503ZM106.096 18.397L96.492 41.245H92.32L95.68 33.517L89.464 18.397H93.86L97.864 29.233L101.924 18.397H106.096ZM126.353 18.173C128.257 18.173 129.787 18.761 130.945 19.937C132.121 21.094 132.709 22.718 132.709 24.809V33.909H128.789V25.341C128.789 24.128 128.481 23.204 127.865 22.569C127.249 21.916 126.409 21.589 125.345 21.589C124.281 21.589 123.431 21.916 122.797 22.569C122.181 23.204 121.873 24.128 121.873 25.341V33.909H117.953V25.341C117.953 24.128 117.645 23.204 117.029 22.569C116.413 21.916 115.573 21.589 114.509 21.589C113.426 21.589 112.567 21.916 111.933 22.569C111.317 23.204 111.009 24.128 111.009 25.341V33.909H107.089V18.397H111.009V20.273C111.521 19.6131 112.184 19.0851 112.941 18.733C113.766 18.3547 114.665 18.1635 115.573 18.173C116.786 18.173 117.869 18.435 118.821 18.957C119.76 19.4481 120.53 20.2087 121.033 21.141C121.537 20.245 122.265 19.527 123.217 18.985C124.174 18.4471 125.255 18.1673 126.353 18.173ZM134.301 26.097C134.301 24.529 134.609 23.138 135.225 21.925C135.859 20.712 136.709 19.779 137.773 19.125C138.855 18.472 140.059 18.145 141.385 18.145C142.542 18.145 143.55 18.378 144.409 18.845C145.286 19.312 145.986 19.9 146.509 20.609V18.397H150.457V33.91H146.509V31.642C146.005 32.37 145.305 32.977 144.409 33.462C143.531 33.929 142.514 34.162 141.357 34.162C140.091 34.1735 138.848 33.8239 137.773 33.154C136.709 32.482 135.859 31.54 135.225 30.326C134.609 29.094 134.301 27.684 134.301 26.097ZM146.509 26.153C146.509 25.201 146.322 24.389 145.949 23.717C145.575 23.027 145.071 22.504 144.437 22.149C143.819 21.7803 143.113 21.5868 142.393 21.589C141.665 21.589 140.993 21.767 140.377 22.121C139.761 22.476 139.257 22.999 138.865 23.689C138.491 24.361 138.305 25.164 138.305 26.097C138.305 27.03 138.491 27.852 138.865 28.561C139.257 29.251 139.761 29.784 140.377 30.157C140.986 30.5233 141.683 30.7169 142.393 30.717C143.109 30.7203 143.813 30.5369 144.437 30.185C145.074 29.8089 145.596 29.2669 145.949 28.617C146.322 27.927 146.509 27.105 146.509 26.153ZM157.729 21.617V29.121C157.729 29.644 157.85 30.026 158.093 30.269C158.354 30.493 158.784 30.605 159.381 30.605H161.201V33.909H158.737C155.433 33.909 153.781 32.304 153.781 29.093V21.617H151.933V18.397H153.781V14.561H157.729V18.397H161.201V21.617H157.729ZM171.637 18.173C172.813 18.173 173.858 18.435 174.773 18.957C175.687 19.461 176.397 20.217 176.901 21.225C177.423 22.215 177.685 23.409 177.685 24.809V33.909H173.765V25.341C173.765 24.109 173.457 23.166 172.841 22.513C172.225 21.841 171.385 21.505 170.321 21.505C169.238 21.505 168.379 21.841 167.745 22.513C167.129 23.166 166.821 24.109 166.821 25.341V33.909H162.901V13.19H166.821V20.33C167.325 19.658 167.997 19.135 168.837 18.762C169.677 18.37 170.61 18.173 171.637 18.173Z" fill="white"/>
</svg>
