<svg width="167" height="48" viewBox="0 0 167 48" fill="none" xmlns="http://www.w3.org/2000/svg">
<g clip-path="url(#clip0_2079_47)">
<path fill-rule="evenodd" clip-rule="evenodd" d="M19.7651 3.44799C19.2603 3.34426 18.7398 3.34426 18.2351 3.44799C17.6511 3.56799 17.1291 3.85999 16.7151 4.09299L16.6011 4.15599L2.54105 11.966L2.42105 12.033C1.98205 12.275 1.43105 12.579 1.00605 13.039C0.639721 13.4369 0.362545 13.9084 0.193053 14.422C-0.00394705 15.016 -0.000947055 15.646 5.29446e-05 16.148V31.844C-0.000947055 32.345 -0.00394705 32.975 0.193053 33.57C0.362545 34.0836 0.639721 34.5551 1.00605 34.953C1.43005 35.413 1.98205 35.717 2.42205 35.959L2.54205 36.025L16.6011 43.835L16.7141 43.899C17.1291 44.131 17.6511 44.424 18.2341 44.544C18.7391 44.6479 19.26 44.6479 19.7651 44.544C20.3491 44.424 20.8711 44.131 21.2851 43.899L21.3991 43.836L35.4591 36.025C35.4989 36.0027 35.5389 35.9807 35.5791 35.959C36.0181 35.717 36.5691 35.413 36.9941 34.953C37.3604 34.5551 37.6376 34.0836 37.8071 33.57C38.0041 32.975 38.0011 32.345 38.0001 31.844V16.148C38.0021 15.646 38.0041 15.016 37.8071 14.422C37.6376 13.9084 37.3604 13.4369 36.9941 13.039C36.5701 12.579 36.0181 12.275 35.5781 12.033L35.4591 11.967L21.3991 4.15599L21.2861 4.09299C20.8711 3.85999 20.3491 3.56799 19.7661 3.44799H19.7651ZM18.4461 7.47799C18.7341 7.31799 18.8811 7.23699 18.9911 7.18399L19.0001 7.17999L19.0101 7.18399C19.1191 7.23699 19.2661 7.31799 19.5541 7.47799L32.1871 14.496L19.0001 21.822L5.81305 14.496L18.4461 7.47799ZM3.80105 17.725L17.1001 25.114V39.766L4.38705 32.703C4.08305 32.534 3.92705 32.447 3.81905 32.378L3.80905 32.372V32.362C3.80071 32.1438 3.79804 31.9254 3.80105 31.707V17.725Z" fill="#101013"/>
<path d="M55.291 30.345H61.339V33.909H50.674V14.955H55.291V30.345ZM65.593 17.277C64.783 17.277 64.117 17.043 63.595 16.575C63.3511 16.3475 63.1578 16.0713 63.0276 15.7643C62.8974 15.4573 62.8331 15.1264 62.839 14.793C62.839 14.073 63.091 13.479 63.595 13.011C64.117 12.525 64.783 12.282 65.593 12.282C66.385 12.282 67.033 12.525 67.537 13.012C68.059 13.479 68.32 14.073 68.32 14.793C68.32 15.495 68.06 16.089 67.537 16.575C67.033 17.043 66.385 17.277 65.593 17.277ZM67.888 18.843V33.91H63.271V18.843H67.888ZM76.688 18.627C77.75 18.627 78.678 18.843 79.469 19.275C80.279 19.707 80.9 20.275 81.332 20.976V18.843H85.9489V33.883C85.9489 35.268 85.6699 36.519 85.1119 37.635C84.5719 38.769 83.7349 39.669 82.6019 40.335C81.4849 41.001 80.09 41.335 78.416 41.335C76.184 41.335 74.3759 40.803 72.9889 39.741C71.6029 38.697 70.8109 37.275 70.6129 35.475H75.176C75.32 36.051 75.662 36.501 76.202 36.825C76.742 37.167 77.4079 37.338 78.1999 37.338C79.1539 37.338 79.91 37.059 80.468 36.501C81.044 35.961 81.332 35.088 81.332 33.882V31.75C80.882 32.452 80.262 33.028 79.469 33.478C78.677 33.91 77.75 34.126 76.689 34.126C75.446 34.126 74.321 33.811 73.313 33.181C72.305 32.533 71.504 31.624 70.91 30.454C70.334 29.266 70.0459 27.898 70.0459 26.35C70.0459 24.802 70.334 23.443 70.91 22.273C71.504 21.103 72.305 20.203 73.313 19.573C74.321 18.943 75.446 18.627 76.688 18.627ZM81.332 26.377C81.332 25.224 81.008 24.315 80.36 23.649C80.0659 23.3273 79.7068 23.0718 79.3065 22.8996C78.9061 22.7274 78.4737 22.6423 78.038 22.65C77.12 22.65 76.338 22.983 75.689 23.65C75.059 24.297 74.744 25.197 74.744 26.35C74.744 27.501 75.059 28.42 75.689 29.103C76.337 29.769 77.12 30.103 78.039 30.103C78.956 30.103 79.73 29.769 80.36 29.103C81.008 28.437 81.332 27.528 81.332 26.376V26.377ZM98.2799 18.681C100.008 18.681 101.394 19.257 102.438 20.409C103.482 21.543 104.004 23.109 104.004 25.107V33.909H99.414V25.729C99.414 24.72 99.1539 23.937 98.6309 23.379C98.1089 22.821 97.407 22.542 96.525 22.542C95.643 22.542 94.9409 22.822 94.4189 23.379C93.8969 23.937 93.636 24.72 93.636 25.729V33.909H89.0199V13.93H93.637V20.87C94.105 20.203 94.744 19.672 95.554 19.276C96.364 18.88 97.2739 18.682 98.2809 18.682L98.2799 18.681ZM115.34 29.994V33.909H112.991C111.317 33.909 110.012 33.504 109.076 32.694C108.14 31.866 107.672 30.525 107.672 28.671V22.677H105.836V18.843H107.672V15.171H112.289V18.843H115.313V22.677H112.289V28.725C112.289 29.175 112.397 29.499 112.613 29.697C112.829 29.895 113.189 29.994 113.693 29.994H115.34ZM122.258 20.976C122.69 20.274 123.311 19.707 124.121 19.276C124.931 18.843 125.858 18.627 126.902 18.627C128.144 18.627 129.269 18.942 130.277 19.572C131.285 20.202 132.077 21.102 132.653 22.272C133.247 23.442 133.544 24.802 133.544 26.349C133.544 27.897 133.247 29.265 132.653 30.453C132.077 31.623 131.285 32.533 130.277 33.18C129.269 33.81 128.144 34.125 126.902 34.125C125.84 34.125 124.913 33.918 124.121 33.505C123.329 33.072 122.708 32.505 122.258 31.803V33.909H117.641V13.93H122.258V20.976ZM128.846 26.349C128.846 25.197 128.522 24.297 127.874 23.649C127.244 22.983 126.461 22.65 125.525 22.65C124.607 22.65 123.824 22.983 123.176 23.65C122.546 24.315 122.231 25.224 122.231 26.376C122.231 27.528 122.546 28.437 123.176 29.103C123.824 29.769 124.607 30.103 125.525 30.103C126.443 30.103 127.226 29.769 127.874 29.103C128.522 28.419 128.846 27.501 128.846 26.349ZM142.555 34.125C141.079 34.125 139.747 33.81 138.559 33.18C137.397 32.5582 136.434 31.6227 135.778 30.48C135.112 29.31 134.779 27.942 134.779 26.376C134.779 24.828 135.121 23.469 135.805 22.299C136.46 21.1393 137.435 20.1926 138.613 19.572C139.801 18.942 141.133 18.627 142.609 18.627C144.085 18.627 145.417 18.942 146.605 19.572C147.783 20.1926 148.758 21.1393 149.413 22.299C150.097 23.469 150.439 24.829 150.439 26.376C150.439 27.924 150.088 29.292 149.386 30.48C148.719 31.6333 147.735 32.5705 146.551 33.18C145.363 33.81 144.031 34.125 142.555 34.125ZM142.555 30.129C143.437 30.129 144.184 29.805 144.796 29.157C145.426 28.509 145.741 27.582 145.741 26.377C145.741 25.17 145.435 24.243 144.823 23.595C144.546 23.2822 144.205 23.0333 143.823 22.8655C143.441 22.6977 143.026 22.6149 142.609 22.623C141.709 22.623 140.962 22.947 140.368 23.595C139.774 24.225 139.477 25.152 139.477 26.376C139.477 27.582 139.765 28.509 140.341 29.157C140.618 29.4698 140.959 29.7187 141.341 29.8865C141.723 30.0543 142.138 30.1371 142.555 30.129ZM161.528 33.91L158.639 29.724L156.209 33.909H151.214L156.182 26.214L151.079 18.844H156.263L159.152 23L161.582 18.842H166.577L161.528 26.429L166.712 33.909L161.528 33.91Z" fill="#101013"/>
</g>
<defs>
<clipPath id="clip0_2079_47">
<rect width="167" height="48" fill="white"/>
</clipPath>
</defs>
</svg>
