<svg width="177" height="48" viewBox="0 0 177 48" fill="none" xmlns="http://www.w3.org/2000/svg">
<path d="M13.58 3.675C16.2495 2.5692 19.1106 2.00004 22 2V13C20.5554 12.9997 19.1249 13.2841 17.7902 13.8368C16.4555 14.3895 15.2427 15.1997 14.2212 16.2212C13.1997 17.2427 12.3895 18.4555 11.8368 19.7902C11.2841 21.1249 10.9997 22.5554 11 24H0C0.000254398 19.649 1.29053 15.3958 3.7077 11.7781C6.12488 8.16033 9.56042 5.34048 13.58 3.675Z" fill="white"/>
<path opacity="0.6" d="M0 24C0.000530346 29.8346 2.31855 35.4301 6.44424 39.5558C10.5699 43.6814 16.1654 45.9995 22 46C27.8345 45.9992 33.4298 43.6811 37.5555 39.5555C41.6811 35.4298 43.9992 29.8345 44 24H33C33.0003 25.4446 32.7159 26.8751 32.1632 28.2098C31.6105 29.5445 30.8003 30.7573 29.7788 31.7788C28.7573 32.8003 27.5445 33.6105 26.2098 34.1632C24.8751 34.7159 23.4446 35.0003 22 35C20.5554 35.0003 19.1249 34.7159 17.7902 34.1632C16.4555 33.6105 15.2427 32.8003 14.2212 31.7788C13.1997 30.7573 12.3895 29.5445 11.8368 28.2098C11.2841 26.8751 10.9997 25.4446 11 24H0ZM22 17C20.1435 17 18.363 17.7375 17.0503 19.0503C15.7375 20.363 15 22.1435 15 24H29C29 22.1435 28.2625 20.363 26.9497 19.0503C25.637 17.7375 23.8565 17 22 17Z" fill="white"/>
<path d="M22 31C20.1435 31 18.363 30.2625 17.0503 28.9497C15.7375 27.637 15 25.8565 15 24H29C29 25.8565 28.2625 27.637 26.9497 28.9497C25.637 30.2625 23.8565 31 22 31Z" fill="white"/>
<path d="M66.817 19.402C66.737 18.6 66.396 17.977 65.793 17.532C65.189 17.089 64.371 16.866 63.337 16.866C62.634 16.866 62.041 16.966 61.557 17.165C61.073 17.357 60.702 17.625 60.443 17.97C60.1925 18.3097 60.0598 18.7219 60.065 19.144C60.052 19.508 60.128 19.826 60.294 20.098C60.466 20.37 60.702 20.605 61 20.804C61.3255 21.0096 61.6721 21.1796 62.034 21.311C62.425 21.451 62.843 21.57 63.287 21.669L65.117 22.107C65.9565 22.2897 66.7756 22.556 67.562 22.902C68.305 23.233 68.948 23.642 69.492 24.125C70.0284 24.5997 70.4585 25.1825 70.754 25.835C71.059 26.491 71.215 27.244 71.222 28.092C71.215 29.339 70.897 30.419 70.267 31.334C69.644 32.242 68.742 32.948 67.563 33.452C66.389 33.949 64.974 34.197 63.317 34.197C61.673 34.197 60.241 33.946 59.021 33.442C57.808 32.938 56.861 32.192 56.178 31.205C55.501 30.21 55.147 28.981 55.114 27.515H59.28C59.326 28.198 59.522 28.768 59.867 29.225C60.217 29.677 60.685 30.018 61.269 30.25C61.859 30.475 62.525 30.588 63.267 30.588C63.997 30.588 64.629 30.482 65.167 30.27C65.71 30.058 66.131 29.763 66.429 29.385C66.727 29.007 66.876 28.573 66.876 28.082C66.876 27.625 66.74 27.241 66.469 26.929C66.204 26.618 65.813 26.352 65.296 26.134C64.6869 25.8835 64.0581 25.6838 63.416 25.537L61.2 24.98C59.483 24.562 58.127 23.91 57.133 23.021C56.139 22.133 55.645 20.937 55.652 19.431C55.645 18.199 55.973 17.121 56.636 16.201C57.306 15.279 58.223 14.56 59.39 14.043C60.557 13.526 61.883 13.267 63.367 13.267C64.879 13.267 66.198 13.526 67.325 14.043C68.458 14.56 69.34 15.279 69.97 16.2C70.6 17.122 70.924 18.189 70.944 19.402H66.817ZM80.998 34.207C79.428 34.207 78.075 33.889 76.941 33.253C75.8241 32.6204 74.9181 31.673 74.336 30.529C73.726 29.349 73.421 27.953 73.421 26.342C73.421 24.772 73.726 23.392 74.336 22.206C74.946 21.02 75.805 20.095 76.912 19.432C78.025 18.769 79.332 18.438 80.829 18.438C81.837 18.438 82.775 18.6 83.643 18.925C84.5014 19.2325 85.2821 19.7244 85.93 20.366C86.586 21.009 87.097 21.818 87.461 22.793C87.826 23.761 88.008 24.894 88.008 26.193V27.357H75.112V24.732H84.021C84.021 24.122 83.888 23.582 83.623 23.111C83.365 22.6474 82.9826 22.265 82.519 22.007C82.055 21.735 81.515 21.599 80.899 21.599C80.256 21.599 79.686 21.749 79.189 22.047C78.7057 22.3313 78.3072 22.7398 78.035 23.23C77.7541 23.7309 77.607 24.2957 77.608 24.87V27.366C77.608 28.122 77.747 28.776 78.025 29.326C78.31 29.876 78.711 30.3 79.228 30.598C79.745 30.896 80.358 31.046 81.068 31.046C81.538 31.046 81.969 30.979 82.361 30.846C82.7354 30.7235 83.0782 30.52 83.365 30.25C83.643 29.985 83.855 29.66 84.001 29.276L87.919 29.534C87.7334 30.4486 87.3118 31.2987 86.696 32C86.086 32.696 85.297 33.24 84.329 33.63C83.368 34.015 82.257 34.207 80.998 34.207ZM97.653 39.955C96.281 39.955 95.104 39.765 94.123 39.388C93.149 39.017 92.373 38.51 91.796 37.867C91.2363 37.2565 90.8488 36.5084 90.673 35.699L94.591 35.172C94.71 35.477 94.899 35.762 95.157 36.027C95.416 36.292 95.757 36.504 96.182 36.663C96.612 36.829 97.136 36.912 97.752 36.912C98.674 36.912 99.432 36.687 100.029 36.236C100.633 35.792 100.934 35.046 100.934 33.999V31.205H100.755C100.553 31.6538 100.27 32.0615 99.92 32.408C99.549 32.786 99.072 33.094 98.488 33.332C97.905 33.572 97.208 33.69 96.4 33.69C95.253 33.69 94.21 33.425 93.268 32.895C92.334 32.358 91.588 31.539 91.031 30.439C90.481 29.332 90.206 27.933 90.206 26.243C90.206 24.513 90.487 23.068 91.051 21.908C91.614 20.748 92.363 19.879 93.298 19.303C94.2268 18.7295 95.2984 18.4293 96.39 18.437C97.245 18.437 97.961 18.583 98.538 18.875C99.115 19.16 99.578 19.518 99.93 19.949C100.288 20.373 100.563 20.791 100.755 21.202H100.914V18.636H105.12V34.058C105.12 35.358 104.802 36.445 104.166 37.32C103.529 38.195 102.648 38.85 101.521 39.288C100.401 39.733 99.111 39.955 97.653 39.955ZM97.743 30.509C98.425 30.509 99.002 30.339 99.473 30.001C99.95 29.657 100.315 29.166 100.566 28.53C100.825 27.887 100.954 27.118 100.954 26.223C100.954 25.328 100.828 24.553 100.576 23.896C100.324 23.233 99.96 22.72 99.483 22.356C99.005 21.991 98.425 21.808 97.743 21.808C97.046 21.808 96.46 21.998 95.983 22.375C95.505 22.746 95.144 23.263 94.899 23.926C94.653 24.589 94.531 25.355 94.531 26.223C94.531 27.105 94.653 27.867 94.899 28.51C95.151 29.146 95.512 29.64 95.983 29.991C96.46 30.336 97.046 30.509 97.743 30.509ZM108.491 33.91V18.635H112.528V21.33H112.707C113.025 20.435 113.556 19.73 114.298 19.212C115.04 18.695 115.929 18.436 116.963 18.436C118.01 18.436 118.902 18.698 119.637 19.222C120.364 19.7259 120.886 20.4738 121.109 21.33H121.268C121.58 20.455 122.143 19.756 122.958 19.232C123.78 18.702 124.752 18.436 125.872 18.436C127.297 18.436 128.454 18.891 129.342 19.799C130.237 20.7 130.684 21.979 130.684 23.637V33.908H126.458V24.472C126.458 23.624 126.233 22.987 125.782 22.563C125.332 22.139 124.768 21.927 124.092 21.927C123.323 21.927 122.723 22.172 122.292 22.662C121.861 23.146 121.646 23.786 121.646 24.582V33.908H117.539V24.383C117.539 23.633 117.324 23.037 116.893 22.593C116.469 22.149 115.909 21.927 115.213 21.927C114.742 21.927 114.318 22.046 113.94 22.285C113.569 22.517 113.274 22.845 113.055 23.269C112.836 23.687 112.727 24.177 112.727 24.74V33.908H108.491V33.91ZM140.99 34.207C139.419 34.207 138.067 33.889 136.934 33.253C135.817 32.6205 134.91 31.6731 134.328 30.529C133.719 29.349 133.414 27.953 133.414 26.342C133.414 24.772 133.719 23.392 134.328 22.206C134.938 21.02 135.797 20.095 136.904 19.432C138.017 18.769 139.323 18.438 140.821 18.438C141.829 18.438 142.767 18.6 143.635 18.925C144.494 19.2323 145.274 19.7242 145.922 20.366C146.578 21.009 147.089 21.818 147.453 22.793C147.818 23.761 148 24.894 148 26.193V27.357H135.104V24.732H144.013C144.013 24.122 143.881 23.582 143.615 23.111C143.357 22.6476 142.975 22.2653 142.512 22.007C142.048 21.735 141.507 21.599 140.891 21.599C140.248 21.599 139.678 21.749 139.181 22.047C138.698 22.3312 138.299 22.7397 138.027 23.23C137.746 23.7308 137.599 24.2957 137.6 24.87V27.366C137.6 28.122 137.739 28.776 138.017 29.326C138.302 29.876 138.703 30.3 139.221 30.598C139.738 30.896 140.351 31.046 141.06 31.046C141.531 31.046 141.962 30.979 142.353 30.846C142.727 30.7234 143.07 30.5199 143.357 30.25C143.64 29.9775 143.857 29.6445 143.993 29.276L147.911 29.534C147.725 30.4485 147.304 31.2986 146.688 32C146.078 32.696 145.289 33.24 144.321 33.63C143.36 34.015 142.25 34.207 140.99 34.207ZM155 25.08V33.91H150.765V18.635H154.801V21.33H154.98C155.303 20.4611 155.9 19.7211 156.681 19.222C157.476 18.698 158.441 18.437 159.574 18.437C160.635 18.437 161.56 18.669 162.348 19.133C163.137 19.597 163.75 20.26 164.188 21.121C164.625 21.976 164.844 22.997 164.844 24.184V33.908H160.608V24.94C160.615 24.006 160.376 23.277 159.892 22.753C159.409 22.223 158.742 21.957 157.894 21.957C157.324 21.957 156.82 22.08 156.382 22.325C155.952 22.571 155.614 22.929 155.368 23.399C155.13 23.863 155.007 24.424 155 25.08ZM176.306 18.636V21.818H167.109V18.636H176.306ZM169.197 14.977H173.433V29.216C173.433 29.607 173.492 29.912 173.612 30.131C173.721 30.3333 173.896 30.4914 174.109 30.578C174.327 30.664 174.579 30.708 174.864 30.708C175.063 30.708 175.262 30.691 175.461 30.658L175.918 30.568L176.585 33.72C176.29 33.8077 175.991 33.8841 175.69 33.949C175.229 34.0518 174.76 34.1084 174.288 34.118C173.267 34.158 172.372 34.022 171.603 33.71C170.841 33.399 170.247 32.915 169.823 32.259C169.399 31.602 169.19 30.774 169.197 29.773V14.977Z" fill="white"/>
</svg>
