<svg width="146" height="48" viewBox="0 0 146 48" fill="none" xmlns="http://www.w3.org/2000/svg">
<path opacity="0.4" d="M13.277 22.318C14.1 19.25 17.254 16.096 20.322 15.274L39.451 10.147C42.519 9.325 44.34 11.146 43.518 14.214L38.391 33.344C37.569 36.411 34.415 39.565 31.347 40.388L12.217 45.514C9.14996 46.336 7.32896 44.515 8.15096 41.447L13.277 22.318Z" fill="white"/>
<path d="M5.60898 14.65C6.43098 11.581 9.58498 8.427 12.653 7.605L31.783 2.479C34.85 1.656 36.671 3.477 35.849 6.545L30.723 25.675C29.9 28.742 26.747 31.896 23.678 32.719L4.54998 37.845C1.48198 38.667 -0.339015 36.847 0.482985 33.778L5.60898 14.65Z" fill="white"/>
<path d="M61.524 30.213H67.796V33.909H56.736V14.253H61.524V30.213ZM68.568 26.07C68.568 24.464 68.867 23.055 69.464 21.841C70.08 20.628 70.911 19.695 71.956 19.041C73.001 18.388 74.168 18.061 75.456 18.061C76.557 18.061 77.519 18.285 78.34 18.733C79.18 19.181 79.824 19.769 80.272 20.497V18.285H85.06V33.91H80.272V31.698C79.805 32.426 79.152 33.014 78.312 33.462C77.49 33.91 76.529 34.134 75.428 34.134C74.2007 34.1459 72.9958 33.8058 71.956 33.154C70.91 32.482 70.08 31.54 69.464 30.326C68.867 29.094 68.568 27.676 68.568 26.07ZM80.272 26.097C80.272 24.902 79.936 23.96 79.264 23.269C78.9591 22.9354 78.5867 22.6704 78.1715 22.4918C77.7563 22.3132 77.3079 22.2249 76.856 22.233C75.904 22.233 75.092 22.578 74.42 23.269C73.766 23.941 73.44 24.875 73.44 26.069C73.44 27.264 73.766 28.216 74.42 28.925C75.092 29.615 75.904 29.961 76.856 29.961C77.808 29.961 78.611 29.616 79.264 28.925C79.936 28.235 80.272 27.292 80.272 26.097ZM103.924 18.285L94.124 41.329H88.972L92.556 33.377L86.2 18.285H91.548L95.16 28.057L98.744 18.285H103.924ZM119.823 25.845C119.823 26.293 119.795 26.76 119.739 27.245H108.903C108.978 28.215 109.286 28.962 109.827 29.485C110.387 29.989 111.068 30.241 111.871 30.241C113.066 30.241 113.896 29.737 114.363 28.729H119.459C119.201 29.7499 118.712 30.6982 118.031 31.501C117.359 32.322 116.51 32.967 115.483 33.433C114.456 33.9 113.308 34.133 112.039 34.133C110.508 34.133 109.146 33.806 107.951 33.153C106.767 32.51 105.794 31.5374 105.151 30.353C104.479 29.14 104.143 27.721 104.143 26.097C104.143 24.473 104.47 23.054 105.123 21.841C105.766 20.6565 106.738 19.6839 107.923 19.041C109.118 18.388 110.49 18.061 112.039 18.061C113.551 18.061 114.895 18.378 116.071 19.013C117.231 19.6315 118.185 20.5755 118.815 21.729C119.487 22.905 119.823 24.277 119.823 25.845ZM114.923 24.585C114.923 23.764 114.643 23.11 114.083 22.625C113.523 22.14 112.823 21.897 111.983 21.897C111.18 21.897 110.499 22.131 109.939 22.597C109.398 23.064 109.062 23.727 108.931 24.585H114.923ZM126.577 20.89C127.106 20.0601 127.826 19.3686 128.677 18.873C129.517 18.369 130.45 18.117 131.477 18.117V23.185H130.161C128.966 23.185 128.07 23.447 127.473 23.969C126.876 24.473 126.577 25.369 126.577 26.657V33.909H121.789V18.285H126.577V20.89ZM139.562 34.133C138.199 34.133 136.986 33.9 135.922 33.433C134.858 32.967 134.018 32.332 133.402 31.529C132.796 30.7352 132.436 29.7812 132.366 28.785H137.098C137.154 29.326 137.406 29.765 137.854 30.101C138.302 30.437 138.852 30.605 139.506 30.605C140.103 30.605 140.56 30.493 140.878 30.269C141.214 30.027 141.382 29.719 141.382 29.345C141.382 28.897 141.148 28.571 140.682 28.365C140.215 28.141 139.459 27.899 138.414 27.637C137.294 27.376 136.36 27.105 135.614 26.825C134.87 26.5283 134.207 26.0579 133.682 25.453C133.14 24.819 132.87 23.969 132.87 22.905C132.87 22.009 133.112 21.197 133.598 20.469C134.102 19.722 134.83 19.134 135.782 18.705C136.752 18.275 137.9 18.061 139.226 18.061C141.186 18.061 142.726 18.547 143.846 19.517C144.984 20.487 145.638 21.776 145.806 23.381H141.382C141.307 22.84 141.064 22.411 140.654 22.093C140.262 21.776 139.739 21.617 139.086 21.617C138.526 21.617 138.096 21.729 137.798 21.953C137.655 22.0467 137.538 22.1759 137.46 22.328C137.381 22.4801 137.343 22.65 137.35 22.821C137.35 23.269 137.583 23.605 138.05 23.829C138.535 24.053 139.282 24.277 140.29 24.501C141.447 24.8 142.39 25.099 143.118 25.397C143.846 25.677 144.48 26.144 145.022 26.797C145.582 27.432 145.871 28.291 145.89 29.373C145.89 30.288 145.628 31.109 145.106 31.837C144.602 32.547 143.864 33.107 142.894 33.517C141.942 33.927 140.831 34.133 139.562 34.133Z" fill="white"/>
</svg>
